<svg width="15" height="14" viewBox="0 0 15 14" fill="none" xmlns="http://www.w3.org/2000/svg">
<path d="M0.430664 7.53163V6.34951C0.452539 6.21832 0.479773 6.0878 0.499022 5.95661C0.765048 4.19599 1.69207 2.60224 3.09151 1.50058C4.49095 0.398932 6.25749 -0.127866 8.0321 0.0263471C9.80671 0.18056 11.4563 1.00428 12.6446 2.3308C13.8328 3.65733 14.4706 5.38682 14.4287 7.16692C14.3996 8.54187 13.9628 9.87727 13.1735 11.0037C12.3842 12.1301 11.2784 12.9971 9.99569 13.4944C9.32839 13.705 8.64854 13.8734 7.96032 14H6.90248C6.73973 13.979 6.57815 13.958 6.41628 13.9274C5.1371 13.7503 3.9331 13.2177 2.94283 12.3891C1.95256 11.5605 1.21562 10.47 0.816034 9.24247C0.649739 8.68141 0.520745 8.10983 0.430664 7.53163ZM1.52269 7.18144C1.55755 8.34848 1.93824 9.47936 2.61556 10.4306C3.29289 11.3818 4.23681 12.1107 5.32853 12.5258C6.42025 12.9408 7.61049 13.0232 8.74901 12.7624C9.88752 12.5016 10.9232 11.9098 11.7252 11.0609C12.5271 10.212 13.0593 9.14398 13.2547 7.99287C13.45 6.84175 13.2993 5.65916 12.8223 4.59341C12.3453 3.52766 11.563 2.6269 10.5742 2.00538C9.58539 1.38386 8.43493 1.06887 7.26734 1.10085C6.49023 1.12258 5.72527 1.29733 5.01579 1.61504C4.30631 1.93275 3.66608 2.38742 3.13252 2.95261C2.59897 3.5178 2.18255 4.18303 1.90635 4.90944C1.63015 5.63585 1.49937 6.40895 1.52269 7.18571V7.18144Z" fill="white"/>
<path d="M7.59554 7.19135C8.20803 7.19135 8.78749 7.19135 9.37285 7.19135C9.51209 7.17505 9.65214 7.21059 9.76677 7.29128C9.88139 7.37197 9.96249 7.49213 9.99406 7.62866C10.0245 7.7196 10.0318 7.81676 10.0163 7.91138C10.0007 8.006 9.96226 8.09547 9.90434 8.1719C9.84641 8.24832 9.7708 8.30898 9.68388 8.34956C9.59697 8.39013 9.50113 8.40889 9.40532 8.40422C8.60733 8.40772 7.80883 8.40772 7.00851 8.40422C6.92679 8.41161 6.84409 8.40155 6.76669 8.37433C6.68929 8.34711 6.619 8.30397 6.55991 8.24706C6.50082 8.19015 6.45414 8.12093 6.42405 8.04463C6.39396 7.96833 6.38125 7.88652 6.3856 7.80462C6.3856 7.76526 6.3856 7.72692 6.3856 7.68931C6.3856 6.55403 6.3856 5.41856 6.3856 4.28387C6.38495 4.21756 6.38794 4.15165 6.395 4.08571C6.41685 3.9382 6.49203 3.80417 6.60691 3.70904C6.72178 3.6139 6.868 3.56385 7.01706 3.56981C7.16611 3.57578 7.30749 3.63663 7.41439 3.74064C7.52128 3.84466 7.58641 3.98476 7.59639 4.13354C7.59639 4.18252 7.59639 4.23233 7.59639 4.28131V7.19135H7.59554Z" fill="white"/>
</svg>
