<svg width="24" height="24" viewBox="0 0 24 24" fill="none" xmlns="http://www.w3.org/2000/svg">
<path d="M14.0303 5C14.0303 6.10457 13.1213 7 12 7C10.8787 7 9.96973 6.10457 9.96973 5C9.96973 3.89543 10.8787 3 12 3C13.1213 3 14.0303 3.89543 14.0303 5Z" fill="#8E96A2"/>
<path d="M21.0909 5C21.0909 6.10457 20.1819 7 19.0606 7C17.9393 7 17.0303 6.10457 17.0303 5C17.0303 3.89543 17.9393 3 19.0606 3C20.1819 3 21.0909 3.89543 21.0909 5Z" fill="#8E96A2"/>
<path d="M6.96978 5C6.96978 6.10457 6.06079 7 4.93948 7C3.81818 7 2.90918 6.10457 2.90918 5C2.90918 3.89543 3.81818 3 4.93948 3C6.06079 3 6.96978 3.89543 6.96978 5Z" fill="#8E96A2"/>
<path d="M14.0303 12C14.0303 13.1046 13.1213 14 12 14C10.8787 14 9.96973 13.1046 9.96973 12C9.96973 10.8954 10.8787 10 12 10C13.1213 10 14.0303 10.8954 14.0303 12Z" fill="#8E96A2"/>
<path d="M21.0909 12C21.0909 13.1046 20.1819 14 19.0606 14C17.9393 14 17.0303 13.1046 17.0303 12C17.0303 10.8954 17.9393 10 19.0606 10C20.1819 10 21.0909 10.8954 21.0909 12Z" fill="#8E96A2"/>
<path d="M6.96978 12C6.96978 13.1046 6.06079 14 4.93948 14C3.81818 14 2.90918 13.1046 2.90918 12C2.90918 10.8954 3.81818 10 4.93948 10C6.06079 10 6.96978 10.8954 6.96978 12Z" fill="#8E96A2"/>
<path d="M14.0303 19C14.0303 20.1046 13.1213 21 12 21C10.8787 21 9.96973 20.1046 9.96973 19C9.96973 17.8954 10.8787 17 12 17C13.1213 17 14.0303 17.8954 14.0303 19Z" fill="#8E96A2"/>
<path d="M21.0909 19C21.0909 20.1046 20.1819 21 19.0606 21C17.9393 21 17.0303 20.1046 17.0303 19C17.0303 17.8954 17.9393 17 19.0606 17C20.1819 17 21.0909 17.8954 21.0909 19Z" fill="#8E96A2"/>
<path d="M6.96978 19C6.96978 20.1046 6.06079 21 4.93948 21C3.81818 21 2.90918 20.1046 2.90918 19C2.90918 17.8954 3.81818 17 4.93948 17C6.06079 17 6.96978 17.8954 6.96978 19Z" fill="#8E96A2"/>
</svg>
